<svg width="677" height="499" viewBox="0 0 677 499" fill="none" xmlns="http://www.w3.org/2000/svg">
<g filter="url(#filter0_d_173_32)">
<path d="M638 245.785C638 381.083 519.355 490.763 373 490.763C226.645 490.763 108 381.083 108 245.785C108 110.488 474.059 461.454 373 0.807373C519.355 0.807373 638 110.488 638 245.785Z" fill="#15616D" fill-opacity="0.7" shape-rendering="crispEdges"/>
</g>
<path d="M7.24219 218V206.8L23.2422 203V103.4L7.24219 99.6V88.4H106.642V126H93.0422L88.0422 103.6H61.2422L51.6422 105V144.8H72.0422L76.4422 131H87.0422V175.2H76.4422L72.0422 160H51.6422V202C53.6422 202.267 55.6422 202.467 57.6422 202.6C59.7755 202.733 62.0422 202.8 64.4422 202.8H90.0422L95.2422 178.6H108.442V218H7.24219ZM166.853 218V207L178.053 205.2V203.4L129.053 134.8L113.853 129.6V118.8H168.853V129.8L157.453 131.4V133.4L206.453 202L220.853 207V218H166.853ZM113.453 218V207L126.453 204.2L155.653 168.2L165.453 181.6L148.253 202.8V204.6L159.653 207V218H113.453ZM178.853 166.8L169.853 153.6L186.253 133.6V131.6L175.853 129.8V118.8H218.853V129.8L207.453 132.4L178.853 166.8ZM221.411 251V240L235.211 237.2V136.2L219.011 133V121.4L254.211 116.8L259.611 126L260.811 126.2C264.544 123.4 269.011 121.067 274.211 119.2C279.411 117.2 284.478 116.2 289.411 116.2C300.611 116.2 309.278 120.067 315.411 127.8C321.544 135.533 324.611 146.4 324.611 160.4C324.611 172 322.744 182.2 319.011 191C315.278 199.8 310.078 206.667 303.411 211.6C296.878 216.533 289.211 219 280.411 219C276.811 219 273.211 218.4 269.611 217.2C266.011 215.867 262.878 214.133 260.211 212L259.811 213L261.611 214.8V236.8L281.611 239.6V251H221.411ZM273.811 203.6C281.944 203.6 287.678 200.8 291.011 195.2C294.478 189.6 296.211 180.267 296.211 167.2C296.211 154.933 294.744 146.333 291.811 141.4C288.878 136.333 283.811 133.8 276.611 133.8C274.078 133.8 271.478 134.067 268.811 134.6C266.278 135 263.878 135.733 261.611 136.8V201C263.344 201.8 265.211 202.467 267.211 203C269.344 203.4 271.544 203.6 273.811 203.6ZM332.139 218V207L347.939 204.2V97.6L331.739 94.4V82.8L366.939 78.2L374.339 81V204.2L388.339 207V218H332.139ZM443.048 220.8C431.715 220.8 422.648 218.8 415.848 214.8C409.048 210.8 404.115 205 401.048 197.4C398.115 189.667 396.648 180.533 396.648 170C396.648 163.067 397.582 156.4 399.448 150C401.315 143.467 404.248 137.667 408.248 132.6C412.248 127.4 417.515 123.333 424.048 120.4C430.582 117.333 438.448 115.8 447.648 115.8C458.315 115.8 466.915 117.933 473.448 122.2C480.115 126.333 484.982 132.133 488.048 139.6C491.115 147.067 492.648 155.667 492.648 165.4C492.648 172.467 491.782 179.333 490.048 186C488.448 192.667 485.715 198.667 481.848 204C478.115 209.2 473.048 213.333 466.648 216.4C460.382 219.333 452.515 220.8 443.048 220.8ZM446.448 204.8C451.915 204.8 455.848 203.133 458.248 199.8C460.782 196.333 462.382 191.8 463.048 186.2C463.848 180.6 464.248 174.533 464.248 168C464.248 159.333 463.782 152.4 462.848 147.2C461.915 141.867 460.115 138 457.448 135.6C454.782 133.067 450.782 131.8 445.448 131.8C439.582 131.8 435.182 133.067 432.248 135.6C429.315 138 427.382 141.867 426.448 147.2C425.515 152.533 425.048 159.467 425.048 168C425.048 176 425.515 182.733 426.448 188.2C427.382 193.667 429.382 197.8 432.448 200.6C435.515 203.4 440.182 204.8 446.448 204.8ZM502.303 218V207L518.103 204.2V137.2L502.303 134V122.4L537.103 116.6L543.903 129C545.636 127.4 547.836 125.6 550.503 123.6C553.303 121.6 556.17 119.867 559.103 118.4C562.17 116.933 564.836 116.2 567.103 116.2C570.436 116.2 573.103 117.067 575.103 118.8C577.103 120.4 578.103 123.333 578.103 127.6C578.103 130.133 577.503 132.8 576.303 135.6C575.103 138.4 573.503 140.733 571.503 142.6L556.903 138.2C555.436 137.667 554.103 137.333 552.903 137.2C551.836 136.933 550.836 136.8 549.903 136.8C548.836 136.8 547.836 136.933 546.903 137.2C546.103 137.467 545.303 137.733 544.503 138V203.6L566.503 206.8V218H502.303ZM631.958 220.4C622.091 220.4 613.558 218.867 606.358 215.8C599.291 212.6 593.758 207.333 589.758 200C585.758 192.667 583.758 182.8 583.758 170.4C583.758 158.933 585.758 149.2 589.758 141.2C593.891 133.067 599.491 126.867 606.558 122.6C613.758 118.333 621.958 116.2 631.158 116.2C639.024 116.2 645.491 117.467 650.558 120C655.758 122.4 659.758 125.6 662.558 129.6C665.491 133.6 667.491 137.933 668.558 142.6C669.758 147.267 670.358 151.867 670.358 156.4C670.358 163.333 669.624 167.867 668.158 170C666.691 172.133 664.358 173.2 661.158 173.2H612.158C612.291 179.467 613.158 184.867 614.758 189.4C616.358 193.8 619.024 197.133 622.758 199.4C626.624 201.667 631.891 202.8 638.558 202.8C646.691 202.8 652.891 202.067 657.158 200.6C661.424 199.133 663.758 198.267 664.158 198L668.158 206.4C667.624 206.933 665.824 208.333 662.758 210.6C659.691 212.867 655.558 215.067 650.358 217.2C645.291 219.333 639.158 220.4 631.958 220.4ZM612.158 160.2L642.558 158.6C642.958 156.2 643.158 154 643.158 152C643.158 145.467 642.291 140.667 640.558 137.6C638.958 134.4 635.424 132.8 629.958 132.8C625.291 132.8 621.691 134 619.158 136.4C616.624 138.8 614.824 142.067 613.758 146.2C612.824 150.333 612.291 155 612.158 160.2Z" fill="#042740"/>
<defs>
<filter id="filter0_d_173_32" x="104" y="0.807373" width="538" height="497.956" filterUnits="userSpaceOnUse" color-interpolation-filters="sRGB">
<feFlood flood-opacity="0" result="BackgroundImageFix"/>
<feColorMatrix in="SourceAlpha" type="matrix" values="0 0 0 0 0 0 0 0 0 0 0 0 0 0 0 0 0 0 127 0" result="hardAlpha"/>
<feOffset dy="4"/>
<feGaussianBlur stdDeviation="2"/>
<feComposite in2="hardAlpha" operator="out"/>
<feColorMatrix type="matrix" values="0 0 0 0 0 0 0 0 0 0 0 0 0 0 0 0 0 0 0.25 0"/>
<feBlend mode="normal" in2="BackgroundImageFix" result="effect1_dropShadow_173_32"/>
<feBlend mode="normal" in="SourceGraphic" in2="effect1_dropShadow_173_32" result="shape"/>
</filter>
</defs>
</svg>
