<svg width="96" height="89" viewBox="0 0 96 89" fill="none" xmlns="http://www.w3.org/2000/svg">
<g clip-path="url(#clip0_85_87)">
<path d="M94.74 41.5799C94.74 39.5399 94 37.7399 92.52 36.1799L88.02 31.6799C86.5 30.1599 84.68 29.3999 82.56 29.3999C80.4 29.3999 78.6 30.1599 77.16 31.6799L59.52 49.2599V7.01995C59.52 4.93995 58.77 3.24995 57.27 1.94995C55.77 0.649948 53.96 -5.34058e-05 51.84 -5.34058e-05H44.16C42.04 -5.34058e-05 40.23 0.649948 38.73 1.94995C37.23 3.24995 36.48 4.93995 36.48 7.01995V49.2599L18.84 31.6799C17.4 30.1599 15.6 29.3999 13.44 29.3999C11.28 29.3999 9.48001 30.1599 8.04001 31.6799L3.54001 36.1799C2.02001 37.6999 1.26001 39.4999 1.26001 41.5799C1.26001 43.6999 2.02001 45.5199 3.54001 47.0399L42.6 86.0999C44 87.5799 45.8 88.3199 48 88.3199C50.16 88.3199 51.98 87.5799 53.46 86.0999L92.52 47.0399C94 45.4799 94.74 43.6599 94.74 41.5799Z" fill="black"/>
</g>
<defs>
<clipPath id="clip0_85_87">
<rect width="96" height="88.32" fill="white"/>
</clipPath>
</defs>
</svg>
